<?xml version="1.0"?>
<svg xmlns="http://www.w3.org/2000/svg" xmlns:xlink="http://www.w3.org/1999/xlink" xmlns:svgjs="http://svgjs.com/svgjs" version="1.1" width="512" height="512" x="0" y="0" viewBox="0 0 336 336" style="enable-background:new 0 0 512 512" xml:space="preserve" class=""><g>
<g xmlns="http://www.w3.org/2000/svg">
	<g>
		<path d="M286.8,49.2C256.4,18.8,214.4,0,168,0C121.6,0,79.6,18.8,49.2,49.2C18.8,79.6,0,121.6,0,168c0,46.4,18.8,88.4,49.2,118.8    S121.6,336,168,336c46.4,0,88.4-18.8,118.8-49.2C317.2,256.4,336,214.4,336,168C336,121.6,317.2,79.6,286.8,49.2z M272.4,272.4    c-26.8,26.8-63.6,43.2-104.4,43.2s-77.6-16.4-104.4-43.2C37.2,245.6,20.4,208.8,20.4,168S37.2,90.4,63.6,63.6    C90.4,36.8,127.2,20.4,168,20.4s77.6,16.4,104.4,43.2c26.8,26.8,43.2,63.6,43.2,104.4S299.2,245.6,272.4,272.4z" fill="#ffffff" data-original="#000000" style="" class=""/>
	</g>
</g>
<g xmlns="http://www.w3.org/2000/svg">
	<g>
		<path d="M252.4,157.6h-74V68c0-5.6-4.4-10.4-10.4-10.4c-5.6,0-10.4,4.4-10.4,10.4v100c0,5.6,4.8,10.4,10.4,10.4h84.4    c5.6,0,10.4-4.4,10.4-10.4C262.8,162.4,258.4,157.6,252.4,157.6z" fill="#ffffff" data-original="#000000" style="" class=""/>
	</g>
</g>
<g xmlns="http://www.w3.org/2000/svg">
</g>
<g xmlns="http://www.w3.org/2000/svg">
</g>
<g xmlns="http://www.w3.org/2000/svg">
</g>
<g xmlns="http://www.w3.org/2000/svg">
</g>
<g xmlns="http://www.w3.org/2000/svg">
</g>
<g xmlns="http://www.w3.org/2000/svg">
</g>
<g xmlns="http://www.w3.org/2000/svg">
</g>
<g xmlns="http://www.w3.org/2000/svg">
</g>
<g xmlns="http://www.w3.org/2000/svg">
</g>
<g xmlns="http://www.w3.org/2000/svg">
</g>
<g xmlns="http://www.w3.org/2000/svg">
</g>
<g xmlns="http://www.w3.org/2000/svg">
</g>
<g xmlns="http://www.w3.org/2000/svg">
</g>
<g xmlns="http://www.w3.org/2000/svg">
</g>
<g xmlns="http://www.w3.org/2000/svg">
</g>
</g></svg>
